<svg xmlns="http://www.w3.org/2000/svg" width="430" height="96" viewBox="0 0 430 96" role="img" aria-labelledby="title desc">
  <title id="title">VAISS</title>
  <desc id="desc">VAISS project wordmark with a logic circuit motif</desc>
  <defs>
    <linearGradient id="vaiss-blue" x1="0" x2="1" y1="0" y2="0">
      <stop offset="0" stop-color="#004f82"/>
      <stop offset="1" stop-color="#0076a8"/>
    </linearGradient>
  </defs>
  <text x="4" y="69" fill="url(#vaiss-blue)" font-family="Arial, Helvetica, sans-serif" font-size="68" font-weight="300" letter-spacing="5">VAISS</text>
  <g transform="translate(284 18)" fill="none" stroke-linecap="square" stroke-linejoin="round">
    <path d="M0 12 H24 V28 H48" stroke="#004f82" stroke-width="4"/>
    <path d="M0 52 H24 V36 H48" stroke="#004f82" stroke-width="4"/>
    <rect x="48" y="18" width="30" height="28" rx="2" stroke="#0076a8" stroke-width="4"/>
    <path d="M78 32 H102 V12 H124" stroke="#004f82" stroke-width="4"/>
    <path d="M102 32 V52 H124" stroke="#004f82" stroke-width="4"/>
    <rect x="124" y="4" width="30" height="20" rx="2" stroke="#e85a9b" stroke-width="4"/>
    <rect x="124" y="40" width="30" height="20" rx="2" stroke="#0076a8" stroke-width="4"/>
    <path d="M154 14 H172 V32 H190" stroke="#004f82" stroke-width="4"/>
    <path d="M154 50 H172 V32" stroke="#004f82" stroke-width="4"/>
    <rect x="190" y="22" width="18" height="20" rx="2" stroke="#004f82" stroke-width="4"/>
    <path d="M208 32 H218" stroke="#004f82" stroke-width="4"/>
    <circle cx="0" cy="12" r="3.5" fill="#78bd3f" stroke="none"/>
    <circle cx="0" cy="52" r="3.5" fill="#78bd3f" stroke="none"/>
    <circle cx="218" cy="32" r="3.5" fill="#f7c948" stroke="none"/>
  </g>
</svg>
