<svg xmlns="http://www.w3.org/2000/svg" viewBox="0 0 540 150" role="img" aria-labelledby="title desc">
  <title id="title">Veritas wordmark</title>
  <desc id="desc">A calligraphic Veritas wordmark in Leiden-style blue with a red accent stroke.</desc>
  <path
    d="M36 56 C58 42 76 43 86 57 C95 70 88 88 70 107 C62 116 55 121 48 124 C43 126 39 124 38 119 C36 111 47 98 59 87 C70 77 78 68 76 62 C74 56 64 55 48 62 C37 67 26 76 16 88"
    fill="none"
    stroke="#001158"
    stroke-width="10"
    stroke-linecap="round"
    stroke-linejoin="round"
  />
  <text
    x="84"
    y="99"
    fill="#001158"
    font-family="Palatino, 'Palatino Linotype', 'Book Antiqua', Georgia, serif"
    font-size="82"
    font-style="italic"
    font-weight="500"
    letter-spacing="0"
  >veritas</text>
  <path
    d="M108 115 C194 137 340 132 494 111"
    fill="none"
    stroke="#b01c2e"
    stroke-width="5"
    stroke-linecap="round"
  />
</svg>
